<svg width="50" height="50" viewBox="0 0 50 50" fill="none" xmlns="http://www.w3.org/2000/svg">
<g clip-path="url(#clip0_1509_314)">
<path fill-rule="evenodd" clip-rule="evenodd" d="M24.9997 35.8412C26.5067 34.4665 27.7096 32.7919 28.5315 30.925C29.3534 29.0582 29.776 27.0401 29.7723 25.0003C29.7761 22.9605 29.3535 20.9424 28.5316 19.0755C27.7097 17.2086 26.5067 15.5341 24.9997 14.1594C22.4229 11.8072 19.0046 10.3738 15.2535 10.3738C7.23531 10.3738 0.734863 16.9222 0.734863 25.0003C0.734863 33.0781 7.23531 39.6268 15.2535 39.6268C19.0046 39.6268 22.4232 38.1934 24.9997 35.8412Z" fill="#3A9BD9"/>
<path fill-rule="evenodd" clip-rule="evenodd" d="M34.7465 10.3738C30.9954 10.3738 27.5765 11.8072 25.0002 14.1594C24.4748 14.6395 23.9849 15.157 23.5344 15.708H26.465C26.8674 16.1997 27.2374 16.7171 27.5727 17.2568H22.4276C22.1178 17.7559 21.8383 18.2731 21.5905 18.8057H28.4084C28.6431 19.3097 28.8488 19.8268 29.0245 20.3543H20.9757C20.8069 20.8624 20.6662 21.3793 20.5542 21.9029H29.4463C29.664 22.921 29.7735 23.9592 29.7731 25.0003C29.7731 26.6241 29.5096 28.1865 29.0248 29.6461H20.9757C21.1508 30.1737 21.3561 30.6908 21.5905 31.1949H28.4084C28.1611 31.7275 27.8819 32.2447 27.5724 32.7438H22.4276C22.7625 33.2835 23.1321 33.8008 23.5341 34.2926H26.465C26.0151 34.8438 25.5255 35.3615 25.0002 35.8415C27.5765 38.1937 30.9954 39.6271 34.7465 39.6271C42.7644 39.6271 49.2651 33.0784 49.2651 25.0006C49.2651 16.9222 42.7644 10.3738 34.7465 10.3738Z" fill="#CC2131"/>
<path fill-rule="evenodd" clip-rule="evenodd" d="M47.3315 33.1535C47.3315 32.8926 47.5414 32.6809 47.8008 32.6809C48.0597 32.6809 48.2695 32.8926 48.2695 33.1535C48.2695 33.414 48.0597 33.6256 47.8008 33.6256C47.676 33.6252 47.5564 33.5753 47.4684 33.4867C47.3804 33.3982 47.3312 33.2783 47.3315 33.1535V33.1535ZM47.8005 33.512C47.9972 33.512 48.1567 33.352 48.1567 33.1533C48.1567 32.9546 47.9972 32.794 47.8005 32.794C47.6034 32.794 47.4439 32.9546 47.4439 33.1533C47.4439 33.352 47.6037 33.512 47.8005 33.512ZM47.7372 33.3605H47.641V32.945H47.8153C47.8514 32.945 47.8882 32.946 47.9201 32.9662C47.9367 32.9779 47.9501 32.9935 47.9593 33.0116C47.9685 33.0297 47.9731 33.0497 47.9728 33.07C47.9728 33.1167 47.9455 33.1608 47.9014 33.1774L47.9774 33.3603H47.8706L47.8078 33.1961H47.7375V33.3605V33.1255H47.7907C47.8099 33.1255 47.8317 33.1265 47.849 33.117C47.8568 33.1116 47.863 33.1045 47.8673 33.0962C47.8715 33.0878 47.8736 33.0786 47.8734 33.0692C47.8731 33.0609 47.8708 33.0527 47.8668 33.0454C47.8627 33.0381 47.857 33.0319 47.8501 33.0272C47.8335 33.0171 47.8065 33.0197 47.7883 33.0197H47.7378V33.3605H47.7372Z" fill="#CC2131"/>
<path fill-rule="evenodd" clip-rule="evenodd" d="M44.2611 28.1703C44.2611 27.9093 44.4709 27.6977 44.7298 27.6977C44.9887 27.6977 45.1985 27.9093 45.1985 28.1703C45.1985 28.4313 44.9887 28.6424 44.7298 28.6424C44.4709 28.6424 44.2611 28.431 44.2611 28.1703ZM44.7296 28.5288C44.9262 28.5288 45.0857 28.3682 45.0857 28.17C45.0857 27.9713 44.9262 27.8108 44.7296 27.8108C44.5324 27.8108 44.3734 27.9713 44.3734 28.17C44.3734 28.3682 44.5327 28.5288 44.7296 28.5288ZM44.6663 28.3773H44.57V27.9623H44.7443C44.7804 27.9623 44.8177 27.9628 44.8491 27.9835C44.8657 27.9951 44.8791 28.0106 44.8883 28.0286C44.8975 28.0466 44.9021 28.0666 44.9018 28.0868C44.9018 28.134 44.8748 28.1776 44.8305 28.1942L44.9065 28.377H44.8001L44.7368 28.2128H44.6665V28.3773V28.1423H44.7197C44.7394 28.1423 44.7612 28.1438 44.7781 28.1342C44.7857 28.1289 44.7919 28.1217 44.7961 28.1134C44.8004 28.1051 44.8026 28.0959 44.8024 28.0865C44.8023 28.0781 44.8001 28.0698 44.796 28.0624C44.7919 28.055 44.7861 28.0487 44.7791 28.044C44.7625 28.0344 44.7355 28.0365 44.7179 28.0365H44.6668V28.3773H44.6663ZM13.4397 28.6424H11.6328L12.7067 22.9419L10.2341 28.6424H8.58645L8.2853 22.9746L7.20803 28.6424H5.56787L6.96938 21.2271H9.78901L9.93816 25.8178L11.9262 21.2271H14.8643L13.4397 28.6424V28.6424ZM33.6339 28.5685C33.1395 28.7052 32.753 28.7641 32.3354 28.7641C31.4109 28.7641 30.9061 28.2969 30.9061 27.4398C30.9061 27.2702 30.9248 27.0897 30.9593 26.8987L31.0693 26.3091L31.1538 25.8319L31.9914 21.2268H33.7885L33.5281 22.6117H34.4502L34.2025 24.0778H33.2765L32.8002 26.594C32.7826 26.6761 32.7722 26.7597 32.7694 26.8438C32.7694 27.1553 32.9564 27.2907 33.3859 27.2907C33.5916 27.2907 33.7512 27.272 33.8733 27.2344L33.6339 28.5685ZM38.9116 22.6613C38.7601 22.6011 38.7246 22.6011 38.7069 22.5962C38.6112 22.5749 38.5601 22.5624 38.5513 22.5609C38.4912 22.5504 38.4304 22.5453 38.3694 22.5458C37.7762 22.5458 37.3485 22.812 36.7954 23.525L36.955 22.6112H35.3184L34.217 28.6421H36.0253C36.6722 24.9538 36.9493 24.3079 37.8167 24.3079C37.882 24.3079 37.9575 24.3131 38.0452 24.3232L38.2563 24.3665L38.9116 22.6613V22.6613ZM26.4707 24.517C26.4707 25.2788 26.8969 25.8036 27.8629 26.1979C28.6032 26.5008 28.7176 26.5895 28.7176 26.8635C28.7176 27.2388 28.3913 27.4082 27.6683 27.4082C27.1226 27.4082 26.6155 27.3343 26.03 27.1696L25.7792 28.5607L25.8601 28.5744L26.195 28.6362C26.3029 28.6549 26.4619 28.6727 26.6728 28.6888C27.1075 28.7228 27.444 28.7389 27.6811 28.7389C29.6099 28.7389 30.5009 28.1021 30.5009 26.7265C30.5009 25.8988 30.1285 25.4134 29.2125 25.048C28.446 24.7427 28.3573 24.6749 28.3573 24.3935C28.3573 24.0685 28.6613 23.9014 29.252 23.9014C29.6112 23.9014 30.101 23.9354 30.5655 23.992L30.826 22.5959C30.3528 22.531 29.6348 22.4779 29.2175 22.4779C27.1724 22.4781 26.4645 23.4047 26.4707 24.517V24.517ZM19.314 28.6424H17.8124L17.8474 28.0173C17.3901 28.5122 16.7805 28.7467 15.952 28.7467C14.9728 28.7467 14.3007 28.0748 14.3007 27.0995C14.3007 25.6303 15.4682 24.774 17.4749 24.774C17.6806 24.774 17.9418 24.7904 18.2111 24.8205C18.2671 24.6223 18.2824 24.5367 18.2824 24.4288C18.2824 24.0296 17.9672 23.8802 17.1234 23.8802C16.6075 23.8802 16.0244 23.9455 15.6218 24.0482L15.3715 24.1123L15.2093 24.1512L15.4599 22.7954C16.3608 22.563 16.9553 22.475 17.6233 22.475C19.1763 22.475 19.997 23.0877 19.997 24.2441C19.997 24.5416 19.9698 24.7676 19.8502 25.4389L19.4725 27.5784L19.4089 27.9623L19.3628 28.2689L19.3319 28.4787L19.314 28.6424V28.6424ZM17.9958 25.9556C17.8618 25.9389 17.7269 25.9306 17.5919 25.9307C16.5678 25.9307 16.049 26.2391 16.049 26.8482C16.049 27.2235 16.3022 27.4632 16.6972 27.4632C17.4339 27.4634 17.9646 26.8474 17.9958 25.9556ZM25.242 28.5122C24.6385 28.676 24.0157 28.7582 23.3904 28.7568C21.3702 28.7552 20.3173 27.8287 20.3173 26.0549C20.3173 23.9847 21.6569 22.4605 23.4752 22.4605C24.9629 22.4605 25.9128 23.3142 25.9128 24.6526C25.9128 25.097 25.8479 25.5302 25.691 26.1416H22.0981C22.0871 26.2041 22.0813 26.2674 22.0807 26.3309C22.0807 27.03 22.6164 27.3867 23.6659 27.3867C24.3113 27.3867 24.8946 27.2686 25.5423 27.0051L25.242 28.5122ZM24.2796 24.9237C24.2895 24.7982 24.2947 24.6954 24.2947 24.6161C24.2947 24.1263 23.9779 23.8389 23.4399 23.8389C22.8651 23.8389 22.454 24.2244 22.2872 24.9201L24.2796 24.9237ZM44.5285 25.9081C44.258 27.9143 42.8674 28.804 41.0186 28.804C38.9743 28.804 38.1487 27.5548 38.1487 26.0241C38.1487 23.8866 39.5471 22.4384 41.7068 22.4384C43.5815 22.4384 44.5768 23.6293 44.5768 25.1603C44.5768 25.5328 44.5763 25.5574 44.5285 25.9081ZM42.6676 25.1364C42.6676 24.5056 42.4134 23.91 41.6726 23.91C40.7504 23.91 40.179 25.008 40.179 25.9774C40.179 26.795 40.5707 27.3444 41.2166 27.3327C41.6082 27.3327 42.4435 26.7952 42.6087 25.8565C42.6474 25.6376 42.6676 25.3974 42.6676 25.1364V25.1364Z" fill="white"/>
</g>
<defs>
<clipPath id="clip0_1509_314">
<rect width="50" height="50" fill="white"/>
</clipPath>
</defs>
</svg>
