<svg width="36" height="22" viewBox="0 0 36 22" fill="none" xmlns="http://www.w3.org/2000/svg">
<path fill-rule="evenodd" clip-rule="evenodd" d="M17.9412 18.5065C19.028 17.5196 19.8956 16.3175 20.4884 14.9773C21.0811 13.6371 21.386 12.1885 21.3833 10.7241C21.386 9.25984 21.0812 7.81113 20.4884 6.47095C19.8957 5.13076 19.028 3.92868 17.9412 2.94181C16.0827 1.25325 13.6174 0.224243 10.912 0.224243C5.12916 0.224243 0.440918 4.92515 0.440918 10.7241C0.440918 16.523 5.12916 21.2241 10.912 21.2241C13.6174 21.2241 16.0829 20.195 17.9412 18.5065Z" fill="#3A9BD9"/>
<path fill-rule="evenodd" clip-rule="evenodd" d="M24.9696 0.224243C22.2643 0.224243 19.7985 1.25325 17.9404 2.94181C17.5615 3.28645 17.2082 3.65798 16.8833 4.0535H18.9969C19.2871 4.40652 19.5539 4.77792 19.7957 5.16537H16.085C15.8616 5.52365 15.66 5.89494 15.4813 6.27723H20.3985C20.5678 6.63907 20.7161 7.01024 20.8428 7.38892H15.0379C14.9162 7.75365 14.8147 8.12478 14.7339 8.5006H21.147C21.304 9.23146 21.383 9.97677 21.3827 10.7242C21.3827 11.8898 21.1927 13.0114 20.843 14.0592H15.0379C15.1642 14.438 15.3122 14.8092 15.4813 15.1711H20.3985C20.2201 15.5534 20.0187 15.9247 19.7955 16.2829H16.085C16.3266 16.6704 16.5931 17.0418 16.8831 17.3948H18.9969C18.6724 17.7905 18.3193 18.1621 17.9404 18.5067C19.7985 20.1952 22.2643 21.2242 24.9696 21.2242C30.7523 21.2242 35.4407 16.5231 35.4407 10.7243C35.4407 4.92515 30.7523 0.224243 24.9696 0.224243Z" fill="#CC2131"/>
<path fill-rule="evenodd" clip-rule="evenodd" d="M34.0464 16.5768C34.0464 16.3895 34.1977 16.2375 34.3848 16.2375C34.5715 16.2375 34.7229 16.3895 34.7229 16.5768C34.7229 16.7638 34.5715 16.9157 34.3848 16.9157C34.2948 16.9154 34.2086 16.8796 34.1451 16.816C34.0816 16.7525 34.0461 16.6664 34.0464 16.5768V16.5768ZM34.3846 16.8342C34.5264 16.8342 34.6415 16.7193 34.6415 16.5766C34.6415 16.434 34.5264 16.3187 34.3846 16.3187C34.2424 16.3187 34.1274 16.434 34.1274 16.5766C34.1274 16.7193 34.2426 16.8342 34.3846 16.8342ZM34.339 16.7254H34.2696V16.4271H34.3953C34.4213 16.4271 34.4479 16.4279 34.4709 16.4424C34.4828 16.4508 34.4925 16.462 34.4991 16.4749C34.5058 16.4879 34.5091 16.5023 34.5089 16.5169C34.5089 16.5504 34.4892 16.582 34.4574 16.594L34.5122 16.7252H34.4351L34.3899 16.6074H34.3392V16.7254V16.5567H34.3775C34.3914 16.5567 34.4071 16.5575 34.4196 16.5506C34.4252 16.5468 34.4297 16.5416 34.4328 16.5357C34.4358 16.5297 34.4374 16.523 34.4372 16.5163C34.437 16.5103 34.4353 16.5045 34.4324 16.4992C34.4295 16.494 34.4254 16.4895 34.4204 16.4861C34.4084 16.4789 34.3889 16.4807 34.3758 16.4807H34.3394V16.7254H34.339Z" fill="#CC2131"/>
<path fill-rule="evenodd" clip-rule="evenodd" d="M31.8325 12.9996C31.8325 12.8123 31.9839 12.6604 32.1706 12.6604C32.3573 12.6604 32.5086 12.8123 32.5086 12.9996C32.5086 13.187 32.3573 13.3385 32.1706 13.3385C31.9839 13.3385 31.8325 13.1868 31.8325 12.9996ZM32.1704 13.257C32.3122 13.257 32.4273 13.1417 32.4273 12.9995C32.4273 12.8568 32.3122 12.7416 32.1704 12.7416C32.0282 12.7416 31.9135 12.8568 31.9135 12.9995C31.9135 13.1417 32.0284 13.257 32.1704 13.257ZM32.1248 13.1482H32.0554V12.8503H32.1811C32.2071 12.8503 32.234 12.8507 32.2566 12.8656C32.2686 12.8739 32.2783 12.885 32.2849 12.8979C32.2915 12.9108 32.2949 12.9252 32.2946 12.9397C32.2946 12.9736 32.2752 13.0049 32.2432 13.0168L32.298 13.1481H32.2213L32.1756 13.0302H32.1249V13.1482V12.9795H32.1633C32.1775 12.9795 32.1932 12.9807 32.2054 12.9738C32.2109 12.9699 32.2154 12.9648 32.2184 12.9588C32.2215 12.9528 32.2231 12.9462 32.223 12.9395C32.2229 12.9334 32.2213 12.9275 32.2183 12.9222C32.2154 12.9169 32.2112 12.9123 32.2061 12.909C32.1942 12.9021 32.1747 12.9036 32.162 12.9036H32.1251V13.1482H32.1248ZM9.60361 13.3385H8.3004L9.07492 9.24637L7.29166 13.3385H6.10333L5.88613 9.26983L5.10918 13.3385H3.92627L4.93707 8.01532H6.97063L7.07821 11.3109L8.51199 8.01532H10.6311L9.60361 13.3385V13.3385ZM24.168 13.2855C23.8115 13.3836 23.5327 13.4259 23.2315 13.4259C22.5647 13.4259 22.2007 13.0905 22.2007 12.4753C22.2007 12.3535 22.2142 12.2239 22.239 12.0868L22.3184 11.6636L22.3793 11.3209L22.9834 8.01514H24.2795L24.0917 9.00932H24.7568L24.5781 10.0618H23.9102L23.5667 11.868C23.554 11.927 23.5466 11.987 23.5445 12.0474C23.5445 12.271 23.6794 12.3682 23.9892 12.3682C24.1375 12.3682 24.2526 12.3548 24.3407 12.3278L24.168 13.2855ZM27.9744 9.04489C27.8651 9.00168 27.8395 9.00168 27.8268 8.99815C27.7577 8.98288 27.7209 8.97394 27.7145 8.97282C27.6712 8.96529 27.6273 8.96167 27.5834 8.96202C27.1555 8.96202 26.847 9.15308 26.4482 9.66497L26.5632 9.00895H25.3829L24.5886 13.3384H25.8927C26.3593 10.6906 26.5591 10.227 27.1847 10.227C27.2318 10.227 27.2863 10.2307 27.3495 10.2379L27.5018 10.269L27.9744 9.04489V9.04489ZM19.0018 10.377C19.0018 10.9239 19.3092 11.3007 20.0059 11.5837C20.5398 11.8012 20.6223 11.8649 20.6223 12.0615C20.6223 12.331 20.3869 12.4526 19.8655 12.4526C19.4719 12.4526 19.1062 12.3995 18.6839 12.2812L18.503 13.2799L18.5614 13.2898L18.8029 13.3341C18.8808 13.3475 18.9954 13.3603 19.1475 13.3719C19.4611 13.3963 19.7037 13.4078 19.8747 13.4078C21.2658 13.4078 21.9085 12.9507 21.9085 11.9632C21.9085 11.369 21.6398 11.0206 20.9792 10.7582C20.4264 10.539 20.3624 10.4904 20.3624 10.2884C20.3624 10.0551 20.5817 9.93516 21.0077 9.93516C21.2668 9.93516 21.62 9.95956 21.9551 10.0002L22.1429 8.99796C21.8016 8.95141 21.2838 8.91323 20.9828 8.91323C19.5078 8.91342 18.9973 9.57857 19.0018 10.377V10.377ZM13.8402 13.3385H12.7572L12.7825 12.8898C12.4527 13.2451 12.013 13.4134 11.4155 13.4134C10.7093 13.4134 10.2245 12.9311 10.2245 12.231C10.2245 11.1763 11.0666 10.5616 12.5138 10.5616C12.6622 10.5616 12.8506 10.5733 13.0448 10.5949C13.0852 10.4526 13.0962 10.3912 13.0962 10.3137C13.0962 10.0272 12.8689 9.91989 12.2603 9.91989C11.8882 9.91989 11.4677 9.96682 11.1773 10.0406L10.9968 10.0866L10.8799 10.1145L11.0606 9.14116C11.7103 8.97431 12.1391 8.91119 12.6208 8.91119C13.7409 8.91119 14.3328 9.35102 14.3328 10.1811C14.3328 10.3947 14.3132 10.5569 14.2269 11.0388L13.9545 12.5747L13.9087 12.8503L13.8754 13.0704L13.8531 13.2211L13.8402 13.3385V13.3385ZM12.8895 11.4098C12.7929 11.3978 12.6956 11.3918 12.5982 11.3919C11.8596 11.3919 11.4855 11.6133 11.4855 12.0505C11.4855 12.32 11.668 12.492 11.953 12.492C12.4843 12.4922 12.867 12.05 12.8895 11.4098ZM18.1156 13.2451C17.6803 13.3627 17.2312 13.4217 16.7802 13.4207C15.3232 13.4196 14.5639 12.7544 14.5639 11.4811C14.5639 9.99494 15.53 8.90076 16.8414 8.90076C17.9143 8.90076 18.5994 9.51358 18.5994 10.4744C18.5994 10.7934 18.5526 11.1044 18.4394 11.5433H15.8482C15.8402 11.5882 15.8361 11.6336 15.8356 11.6792C15.8356 12.1811 16.222 12.4371 16.9789 12.4371C17.4443 12.4371 17.8651 12.3524 18.3322 12.1632L18.1156 13.2451ZM17.4215 10.669C17.4286 10.5789 17.4324 10.5052 17.4324 10.4482C17.4324 10.0966 17.2039 9.89029 16.8159 9.89029C16.4014 9.89029 16.1049 10.167 15.9846 10.6664L17.4215 10.669ZM32.0254 11.3757C31.8303 12.8159 30.8274 13.4546 29.494 13.4546C28.0196 13.4546 27.4242 12.5578 27.4242 11.4589C27.4242 9.92455 28.4327 8.88493 29.9904 8.88493C31.3424 8.88493 32.0602 9.73983 32.0602 10.8388C32.0602 11.1062 32.0598 11.1239 32.0254 11.3757ZM30.6833 10.8217C30.6833 10.3688 30.5 9.94131 29.9657 9.94131C29.3006 9.94131 28.8884 10.7295 28.8884 11.4254C28.8884 12.0124 29.1709 12.4067 29.6368 12.3984C29.9193 12.3984 30.5217 12.0125 30.6408 11.3386C30.6687 11.1815 30.6833 11.009 30.6833 10.8217V10.8217Z" fill="white"/>
</svg>
